<svg xmlns="http://www.w3.org/2000/svg" viewBox="0 0 1200 630" width="1200" height="630" role="img" aria-labelledby="title desc">
  <title id="title">Jorge Resolve</title>
  <desc id="desc">Jorge Resolve, tecnologia que resolve problema real.</desc>
  <defs>
    <radialGradient id="bg" cx="78%" cy="0%" r="110%">
      <stop offset="0" stop-color="#0D3A8A"/>
      <stop offset="55%" stop-color="#07152E"/>
      <stop offset="100%" stop-color="#050F22"/>
    </radialGradient>
    <linearGradient id="jr-blue" x1="0" y1="0" x2="128" y2="128" gradientUnits="userSpaceOnUse">
      <stop offset="0" stop-color="#0B5CFF"/>
      <stop offset="1" stop-color="#0A4FDB"/>
    </linearGradient>
    <linearGradient id="resolve-green" x1="28" y1="108" x2="112" y2="34" gradientUnits="userSpaceOnUse">
      <stop offset="0" stop-color="#8BFFB3"/>
      <stop offset=".48" stop-color="#25D366"/>
      <stop offset="1" stop-color="#11B85B"/>
    </linearGradient>
    <linearGradient id="hl" x1="80" y1="0" x2="720" y2="0" gradientUnits="userSpaceOnUse">
      <stop offset="0" stop-color="#56A0FF"/>
      <stop offset="1" stop-color="#25D366"/>
    </linearGradient>
    <filter id="resolve-shadow" x="-25%" y="-25%" width="150%" height="160%">
      <feDropShadow dx="0" dy="5" stdDeviation="2.5" flood-color="#04210F" flood-opacity=".32"/>
    </filter>
  </defs>
  <rect width="1200" height="630" fill="url(#bg)"/>
  <g opacity=".08" stroke="#FFFFFF" stroke-width="1">
    <path d="M0 120h1200M0 240h1200M0 360h1200M0 480h1200"/>
    <path d="M120 0v630M280 0v630M440 0v630M600 0v630M760 0v630M920 0v630M1080 0v630"/>
  </g>
  <circle cx="1000" cy="110" r="260" fill="#0B5CFF" opacity=".18"/>
  <circle cx="78" cy="590" r="220" fill="#25D366" opacity=".10"/>

  <g transform="translate(80,78)">
    <g transform="scale(.703125)">
      <rect width="128" height="128" rx="34" fill="url(#jr-blue)"/>
      <path d="M24 30h80a8 8 0 0 1 8 8v34" fill="none" stroke="#6EA8FF" stroke-width="3.5" stroke-linecap="round" opacity=".42"/>
      <g opacity=".94">
        <rect x="36" y="27" width="18" height="78" fill="#FFFFFF"/>
        <rect x="54" y="27" width="32" height="17" fill="#FFFFFF"/>
        <rect x="83" y="40" width="17" height="31" fill="#FFFFFF"/>
        <rect x="54" y="64" width="38" height="17" fill="#FFFFFF"/>
        <path d="M68 79h20l24 26H90L68 79Z" fill="#FFFFFF"/>
      </g>
      <g filter="url(#resolve-shadow)">
        <path d="M31 70l24 24 50-50" fill="none" stroke="#04391E" stroke-width="23" stroke-linecap="square" stroke-linejoin="miter" opacity=".24"/>
        <path d="M31 70l24 24 50-50" fill="none" stroke="url(#resolve-green)" stroke-width="17" stroke-linecap="square" stroke-linejoin="miter"/>
        <path d="M40 74l-6 6M48 82l-6 6M67 82l6 6M78 71l6 6M89 60l6 6" fill="none" stroke="#D9FFE6" stroke-width="2.2" stroke-linecap="square" opacity=".68"/>
      </g>
    </g>
    <text x="116" y="43" font-family="Inter, Arial, sans-serif" font-size="33" font-weight="700" fill="#FFFFFF">Jorge<tspan font-weight="800" fill="#8EC0FF">Resolve</tspan></text>
    <text x="118" y="76" font-family="Inter, Arial, sans-serif" font-size="20" font-weight="600" fill="#CFE0FF">Tecnologia que resolve problema real.</text>
  </g>

  <text x="80" y="300" font-family="Inter, Arial, sans-serif" font-size="64" font-weight="800" fill="#FFFFFF">Seu negócio pode estar</text>
  <text x="80" y="376" font-family="Inter, Arial, sans-serif" font-size="64" font-weight="800" fill="url(#hl)">perdendo dinheiro<tspan dx="16" fill="#FFFFFF">sem perceber.</tspan></text>
  <text x="80" y="452" font-family="Inter, Arial, sans-serif" font-size="29" font-weight="600" fill="#CFE0FF">Sites, IA e automação aplicados ao que realmente importa.</text>

  <g transform="translate(80,504)">
    <rect width="372" height="64" rx="32" fill="#25D366"/>
    <text x="186" y="41" font-family="Inter, Arial, sans-serif" font-size="24" font-weight="800" fill="#04210F" text-anchor="middle">Quero encontrar oportunidades</text>
  </g>
</svg>
